/* XPM */
static char * sysmon_small_master_xpm[] = {
"64 92 11 1",
" 	c #0000FF",
".	c #000000",
"+	c #212121",
"@	c #C7C7C7",
"#	c #969E9E",
"$	c #333333",
"%	c #7E8585",
"&	c #8C9393",
"*	c #666666",
"=	c #CD7400",
"-	c #995700",
"                                                                ",
"                                                                ",
"                                                                ",
"                                                                ",
"    ....................................................        ",
"    .++++++++++++++++++++++++++++++++++++++++++++++++++@        ",
"    .++++++++++++++++++++++++++++++++++++++++++++++++++@        ",
"    .++++++++++++++++++++++++++++++++++++++++++++++++++@        ",
"    .++++++++++++++++++++++++++++++++++++++++++++++++++@        ",
"    .++++++++++++++++++++++++++++++++++++++++++++++++++@        ",
"    .++++++++++++++++++++++++++++++++++++++++++++++++++@        ",
"    .++++++++++++++++++++++++++++++++++++++++++++++++++@        ",
"    .++++++++++++++++++++++++++++++++++++++++++++++++++@        ",
"    .++++++++++++++++++++++++++++++++++++++++++++++++++@        ",
"    .++++++++++++++++++++++++++++++++++++++++++++++++++@        ",
"    .++++++++++++++++++++++++++++++++++++++++++++++++++@        ",
"    .++++++++++++++++++++++++++++++++++++++++++++++++++@        ",
"    .++++++++++++++++++++++++++++++++++++++++++++++++++@        ",
"    .++++++++++++++++++++++++++++++++++++++++++++++++++@        ",
"    .++++++++++++++++++++++++++++++++++++++++++++++++++@        ",
"    .++++++++++++++++++++++++++++++++++++++++++++++++++@        ",
"    .++++++++++++++++++++++++++++++++++++++++++++++++++@        ",
"    .++++++++++++++++++++++++++++++++++++++++++++++++++@        ",
"    .++++++++++++++++++++++++++++++++++++++++++++++++++@        ",
"    .++++++++++++++++++++++++++++++++++++++++++++++++++@        ",
"    .++++++++++++++++++++++++++++++++++++++++++++++++++@        ",
"    .++++++++++++++++++++++++++++++++++++++++++++++++++@        ",
"    .++++++++++++++++++++++++++++++++++++++++++++++++++@        ",
"    .++++++++++++++++++++++++++++++++++++++++++++++++++@        ",
"    .++++++++++++++++++++++++++++++++++++++++++++++++++@        ",
"    .++++++++++++++++++++++++++++++++++++++++++++++++++@        ",
"    .++++++++++++++++++++++++++++++++++++++++++++++++++@        ",
"    .++++++++++++++++++++++++++++++++++++++++++++++++++@        ",
"    .++++++++++++++++++++++++++++++++++++++++++++++++++@        ",
"    .++++++++++++++++++++++++++++++++++++++++++++++++++@        ",
"    .++++++++++++++++++++++++++++++++++++++++++++++++++@        ",
"    .++++++++++++++++++++++++++++++++++++++++++++++++++@        ",
"    .++++++++++++++++++++++++++++++++++++++++++++++++++@        ",
"    .++++++++++++++++++++++++++++++++++++++++++++++++++@        ",
"    .++++++++++++++++++++++++++++++++++++++++++++++++++@        ",
"    .++++++++++++++++++++++++++++++++++++++++++++++++++@        ",
"    .++++++++++++++++++++++++++++++++++++++++++++++++++@        ",
"    .++++++++++++++++++++++++++++++++++++++++++++++++++@        ",
"    .++++++++++++++++++++++++++++++++++++++++++++++++++@        ",
"    .++++++++++++++++++++++++++++++++++++++++++++++++++@        ",
"    .++++++++++++++++++++++++++++++++++++++++++++++++++@        ",
"    .++++++++++++++++++++++++++++++++++++++++++++++++++@        ",
"    .++++++++++++++++++++++++++++++++++++++++++++++++++@        ",
"    .++++++++++++++++++++++++++++++++++++++++++++++++++@        ",
"    .++++++++++++++++++++++++++++++++++++++++++++++++++@        ",
"    .++++++++++++++++++++++++++++++++++++++++++++++++++@        ",
"    .++++++++++++++++++++++++++++++++++++++++++++++++++@        ",
"    .++++++++++++++++++++++++++++++++++++++++++++++++++@        ",
"    .++++++++++++++++++++++++++++++++++++++++++++++++++@        ",
"    .++++++++++++++++++++++++++++++++++++++++++++++++++@        ",
"    @@@@@@@@@@@@@@@@@@@@@@@@@@@@@@@@@@@@@@@@@@@@@@@@@@@@        ",
"                                                                ",
"                                                                ",
"                                                                ",
"                                                                ",
"                                                                ",
"                                                                ",
"                                                                ",
"                                                                ",
"                                                                ",
"+++++++++++++++++++++++++++++++++++++++++++++++++++++++++++++++#",
"++###+++$$$%+%###%+%###%+#$$$#+%###%+%###%+%###%+%###%+%###%+++#",
"+#+++#+$+++#+$+++#+$+++#+#+++#+#+++$+#+++$+$+++#+#+++#+#+++#+++&",
"+#+++#+$+++#+$+++#+$+++#+#+++#+#+++$+#+++$+$+++#+#+++#+#+++#+++&",
"+%$$$%++$$$%+%###%++###%+%###%+####%+%###%++$$$%+%###%+%###%+++&",
"+#+++#+$+++#+#+++$+$+++#+$+++#+$+++#+#+++#+$+++#+#+++#+$+++#+++&",
"+#+++#+$+++#+#+++$+$+++#+$+++#+$+++#+#+++#+$+++#+#+++#+$+++#+++&",
"++###+++$$$#+%###%+%###%++$$$%+%###%+%###%++$$$#+%###%+%###%+++&",
"+++++++++++++++++++++++++++++++++++++++++++++++++++++++++++++++&",
"+%###%+%###%+%$$$%+#$$$#+%###%+#$$$#++$$$%++$$#++%###%+#+++++++&",
"+#+++$+#+++#+#+++#+##+##+#+++$+##+##+$+++#+$++#$+#+++#+&+++++++&",
"+#+++$+#+++#+#+++#+#+#+#+#+++$+#+#+#+$+++#+$+#+$+#+++#+%+++++++&",
"+%$$$++%###%+%$$$%+%$$$%+%###++%$$$%++$$$%++$#$++%$$$%+*+++++++&",
"+#+++$+#+++$+#+++#+#+++#+#+++$+#+++#+$+++#+$+#+$+#+++#+$+++++++&",
"+#+++$+#+++$+#+++#+#+++#+#+++$+#+++#+$+++#+$#++$+#+++#+=+++++++&",
"+%###%+%$$$++%###%+%$$$%+%###%+%$$$%++$$$%++#$$++%###%+-+++++++&",
"+++++++++++++++++++++++++++++++++++++++++++++++++++++++++++++++&",
"+==-==-==-==-==-==-==-==-==-==-+$$$$$$$$$$$$$$$$$$$$$$$$$$$$$$+&",
"+==-==-==-==-==-==-==-==-==-==-+$$$$$$$$$$$$$$$$$$$$$$$$$$$$$$+&",
"+==-==-==-==-==-==-==-==-==-==-+$$$$$$$$$$$$$$$$$$$$$$$$$$$$$$+&",
"+==-==-==-==-==-==-==-==-==-==-+$$$$$$$$$$$$$$$$$$$$$$$$$$$$$$+&",
"+==-==-==-==-==-==-==-==-==-==-+$$$$$$$$$$$$$$$$$$$$$$$$$$$$$$+&",
"+==-==-==-==-==-==-==-==-==-==-+$$$$$$$$$$$$$$$$$$$$$$$$$$$$$$+&",
"+==-==-==-==-==-==-==-==-==-==-+$$$$$$$$$$$$$$$$$$$$$$$$$$$$$$+&",
"+++++++++++++++++++++++++++++++++++++++++++++++++++++++++++++++&",
"+****************************************************++++++++++&",
"+++++++++++++++++++++++++++++++++++++++++++++++++++++++++++++++&"};
