/* XPM */
static char * sysmon_master_xpm[] = {
"64 93 10 1",
" 	c None",
".	c #0000FF",
"+	c #000000",
"@	c #212121",
"#	c #C7C7C7",
"$	c #969E9E",
"%	c #333333",
"&	c #7E8585",
"*	c #CD7400",
"=	c #995700",
"................................................................",
"................................................................",
"................................................................",
"................................................................",
"....++++++++++++++++++++++++++++++++++++++++++++++++++++++++....",
"....+@@@@@@@@@@@@@@@@@@@@@@@@@@@@@@@@@@@@@@@@@@@@@@@@@@@@@@#....",
"....+@@@@@@@@@@@@@@@@@@@@@@@@@@@@@@@@@@@@@@@@@@@@@@@@@@@@@@#....",
"....+@@@@@@@@@@@@@@@@@@@@@@@@@@@@@@@@@@@@@@@@@@@@@@@@@@@@@@#....",
"....+@@@@@@@@@@@@@@@@@@@@@@@@@@@@@@@@@@@@@@@@@@@@@@@@@@@@@@#....",
"....+@@@@@@@@@@@@@@@@@@@@@@@@@@@@@@@@@@@@@@@@@@@@@@@@@@@@@@#....",
"....+@@@@@@@@@@@@@@@@@@@@@@@@@@@@@@@@@@@@@@@@@@@@@@@@@@@@@@#....",
"....+@@@@@@@@@@@@@@@@@@@@@@@@@@@@@@@@@@@@@@@@@@@@@@@@@@@@@@#....",
"....+@@@@@@@@@@@@@@@@@@@@@@@@@@@@@@@@@@@@@@@@@@@@@@@@@@@@@@#....",
"....+@@@@@@@@@@@@@@@@@@@@@@@@@@@@@@@@@@@@@@@@@@@@@@@@@@@@@@#....",
"....+@@@@@@@@@@@@@@@@@@@@@@@@@@@@@@@@@@@@@@@@@@@@@@@@@@@@@@#....",
"....+@@@@@@@@@@@@@@@@@@@@@@@@@@@@@@@@@@@@@@@@@@@@@@@@@@@@@@#....",
"....+@@@@@@@@@@@@@@@@@@@@@@@@@@@@@@@@@@@@@@@@@@@@@@@@@@@@@@#....",
"....+@@@@@@@@@@@@@@@@@@@@@@@@@@@@@@@@@@@@@@@@@@@@@@@@@@@@@@#....",
"....+@@@@@@@@@@@@@@@@@@@@@@@@@@@@@@@@@@@@@@@@@@@@@@@@@@@@@@#....",
"....+@@@@@@@@@@@@@@@@@@@@@@@@@@@@@@@@@@@@@@@@@@@@@@@@@@@@@@#....",
"....+@@@@@@@@@@@@@@@@@@@@@@@@@@@@@@@@@@@@@@@@@@@@@@@@@@@@@@#....",
"....+@@@@@@@@@@@@@@@@@@@@@@@@@@@@@@@@@@@@@@@@@@@@@@@@@@@@@@#....",
"....+@@@@@@@@@@@@@@@@@@@@@@@@@@@@@@@@@@@@@@@@@@@@@@@@@@@@@@#....",
"....+@@@@@@@@@@@@@@@@@@@@@@@@@@@@@@@@@@@@@@@@@@@@@@@@@@@@@@#....",
"....+@@@@@@@@@@@@@@@@@@@@@@@@@@@@@@@@@@@@@@@@@@@@@@@@@@@@@@#....",
"....+@@@@@@@@@@@@@@@@@@@@@@@@@@@@@@@@@@@@@@@@@@@@@@@@@@@@@@#....",
"....+@@@@@@@@@@@@@@@@@@@@@@@@@@@@@@@@@@@@@@@@@@@@@@@@@@@@@@#....",
"....+@@@@@@@@@@@@@@@@@@@@@@@@@@@@@@@@@@@@@@@@@@@@@@@@@@@@@@#....",
"....+@@@@@@@@@@@@@@@@@@@@@@@@@@@@@@@@@@@@@@@@@@@@@@@@@@@@@@#....",
"....+@@@@@@@@@@@@@@@@@@@@@@@@@@@@@@@@@@@@@@@@@@@@@@@@@@@@@@#....",
"....+@@@@@@@@@@@@@@@@@@@@@@@@@@@@@@@@@@@@@@@@@@@@@@@@@@@@@@#....",
"....+@@@@@@@@@@@@@@@@@@@@@@@@@@@@@@@@@@@@@@@@@@@@@@@@@@@@@@#....",
"....+@@@@@@@@@@@@@@@@@@@@@@@@@@@@@@@@@@@@@@@@@@@@@@@@@@@@@@#....",
"....+@@@@@@@@@@@@@@@@@@@@@@@@@@@@@@@@@@@@@@@@@@@@@@@@@@@@@@#....",
"....+@@@@@@@@@@@@@@@@@@@@@@@@@@@@@@@@@@@@@@@@@@@@@@@@@@@@@@#....",
"....+@@@@@@@@@@@@@@@@@@@@@@@@@@@@@@@@@@@@@@@@@@@@@@@@@@@@@@#....",
"....+@@@@@@@@@@@@@@@@@@@@@@@@@@@@@@@@@@@@@@@@@@@@@@@@@@@@@@#....",
"....+@@@@@@@@@@@@@@@@@@@@@@@@@@@@@@@@@@@@@@@@@@@@@@@@@@@@@@#....",
"....+@@@@@@@@@@@@@@@@@@@@@@@@@@@@@@@@@@@@@@@@@@@@@@@@@@@@@@#....",
"....+@@@@@@@@@@@@@@@@@@@@@@@@@@@@@@@@@@@@@@@@@@@@@@@@@@@@@@#....",
"....+@@@@@@@@@@@@@@@@@@@@@@@@@@@@@@@@@@@@@@@@@@@@@@@@@@@@@@#....",
"....+@@@@@@@@@@@@@@@@@@@@@@@@@@@@@@@@@@@@@@@@@@@@@@@@@@@@@@#....",
"....+@@@@@@@@@@@@@@@@@@@@@@@@@@@@@@@@@@@@@@@@@@@@@@@@@@@@@@#....",
"....+@@@@@@@@@@@@@@@@@@@@@@@@@@@@@@@@@@@@@@@@@@@@@@@@@@@@@@#....",
"....+@@@@@@@@@@@@@@@@@@@@@@@@@@@@@@@@@@@@@@@@@@@@@@@@@@@@@@#....",
"....+@@@@@@@@@@@@@@@@@@@@@@@@@@@@@@@@@@@@@@@@@@@@@@@@@@@@@@#....",
"....+@@@@@@@@@@@@@@@@@@@@@@@@@@@@@@@@@@@@@@@@@@@@@@@@@@@@@@#....",
"....+@@@@@@@@@@@@@@@@@@@@@@@@@@@@@@@@@@@@@@@@@@@@@@@@@@@@@@#....",
"....+@@@@@@@@@@@@@@@@@@@@@@@@@@@@@@@@@@@@@@@@@@@@@@@@@@@@@@#....",
"....+@@@@@@@@@@@@@@@@@@@@@@@@@@@@@@@@@@@@@@@@@@@@@@@@@@@@@@#....",
"....+@@@@@@@@@@@@@@@@@@@@@@@@@@@@@@@@@@@@@@@@@@@@@@@@@@@@@@#....",
"....+@@@@@@@@@@@@@@@@@@@@@@@@@@@@@@@@@@@@@@@@@@@@@@@@@@@@@@#....",
"....+@@@@@@@@@@@@@@@@@@@@@@@@@@@@@@@@@@@@@@@@@@@@@@@@@@@@@@#....",
"....+@@@@@@@@@@@@@@@@@@@@@@@@@@@@@@@@@@@@@@@@@@@@@@@@@@@@@@#....",
"....+@@@@@@@@@@@@@@@@@@@@@@@@@@@@@@@@@@@@@@@@@@@@@@@@@@@@@@#....",
"....+@@@@@@@@@@@@@@@@@@@@@@@@@@@@@@@@@@@@@@@@@@@@@@@@@@@@@@#....",
"....+@@@@@@@@@@@@@@@@@@@@@@@@@@@@@@@@@@@@@@@@@@@@@@@@@@@@@@#....",
"....+@@@@@@@@@@@@@@@@@@@@@@@@@@@@@@@@@@@@@@@@@@@@@@@@@@@@@@#....",
"....+@@@@@@@@@@@@@@@@@@@@@@@@@@@@@@@@@@@@@@@@@@@@@@@@@@@@@@#....",
"....########################################################....",
"................................................................",
"................................................................",
"................................................................",
"................................................................",
"................................................................",
"@@@@@@@@@@@@@@@@@@@@@@@@@@@@@@@@@@@@@@@@@@@@@@@@@@@@@@@@@@@@@...",
"@@$$$@@@%%%&@&$$$&@&$$$&@$%%%$@&$$$&@&$$$&@&$$$&@&$$$&@&$$$&@...",
"@$@@@$@%@@@$@%@@@$@%@@@$@$@@@$@$@@@%@$@@@%@%@@@$@$@@@$@$@@@$@...",
"@$@@@$@%@@@$@%@@@$@%@@@$@$@@@$@$@@@%@$@@@%@%@@@$@$@@@$@$@@@$@...",
"@&%%%&@@%%%&@&$$$&@@$$$&@&$$$&@$$$$&@&$$$&@@%%%&@&$$$&@&$$$&@...",
"@$@@@$@%@@@$@$@@@%@%@@@$@%@@@$@%@@@$@$@@@$@%@@@$@$@@@$@%@@@$@...",
"@$@@@$@%@@@$@$@@@%@%@@@$@%@@@$@%@@@$@$@@@$@%@@@$@$@@@$@%@@@$@...",
"@@$$$@@@%%%$@&$$$&@&$$$&@@%%%&@&$$$&@&$$$&@@%%%$@&$$$&@&$$$&@...",
"@@@@@@@@@@@@@@@@@@@@@@@@@@@@@@@@@@@@@@@@@@@@@@@@@@@@@@@@@@@@@...",
"@&$$$&@&$$$&@&%%%&@$%%%$@&$$$&@$%%%$@@%%%&@@%%$@@&$$$&@@@@@@@...",
"@$@@@%@$@@@$@$@@@$@$$@$$@$@@@%@$$@$$@%@@@$@%@@$%@$@@@$@@@@@@@...",
"@$@@@%@$@@@$@$@@@$@$@$@$@$@@@%@$@$@$@%@@@$@%@$@%@$@@@$@@@@@@@...",
"@&%%%@@&$$$&@&%%%&@&%%%&@&$$$@@&%%%&@@%%%&@@%$%@@&%%%&@@@@@@@...",
"@$@@@%@$@@@%@$@@@$@$@@@$@$@@@%@$@@@$@%@@@$@%@$@%@$@@@$@@@@@@@...",
"@$@@@%@$@@@%@$@@@$@$@@@$@$@@@%@$@@@$@%@@@$@%$@@%@$@@@$@@@@@@@...",
"@&$$$&@&%%%@@&$$$&@&%%%&@&$$$&@&%%%&@@%%%&@@$%%@@&$$$&@@@@@@@...",
"@@@@@@@@@@@@@@@@@@@@@@@@@@@@@@@@@@@@@@@@@@@@@@@@@@@@@@@@@@@@@...",
"@**=**=**=**=**=**=**=**=**=**=**=**=@@@$@@@@@@@@@@@@@@@@@@@@...",
"@**=**=**=**=**=**=**=**=**=**=**=**=@@@&@@@@@@@@@@@@@@@@@@@@...",
"@**=**=**=**=**=**=**=**=**=**=**=**=@@@%@@@@@@@@@@@@@@@@@@@@...",
"@**=**=**=**=**=**=**=**=**=**=**=**=@@@*@@@@@@@@@@@@@@@@@@@@...",
"@**=**=**=**=**=**=**=**=**=**=**=**=@@@@@@@@@@@@@@@@@@@@@@@@...",
"@**=**=**=**=**=**=**=**=**=**=**=**=@@@@@@@@@@@@@@@@@@@@@@@@...",
"@**=**=**=**=**=**=**=**=**=**=**=**=@@@@@@@@@@@@@@@@@@@@@@@@...",
"@@@@@@@@@@@@@@@@@@@@@@@@@@@@@@@@@@@@@@@@@@@@@@@@@@@@@@@@@@@@@...",
"................................................................",
"................................................................",
"................................................................"};
