#define sysmon_small_mask_width 60
#define sysmon_small_mask_height 60
static char sysmon_small_mask_bits[] = {
   0x00, 0x00, 0x00, 0x00, 0x00, 0x00, 0x00, 0x00,
   0x00, 0x00, 0x00, 0x00, 0x00, 0x00, 0x00, 0x00,
   0x00, 0x00, 0x00, 0x00, 0x00, 0x00, 0x00, 0x00,
   0x00, 0x00, 0x00, 0x00, 0x00, 0x00, 0x00, 0x00,
   0xf0, 0xff, 0xff, 0xff, 0xff, 0xff, 0xff, 0x00,
   0xf0, 0xff, 0xff, 0xff, 0xff, 0xff, 0xff, 0x00,
   0xf0, 0xff, 0xff, 0xff, 0xff, 0xff, 0xff, 0x00,
   0xf0, 0xff, 0xff, 0xff, 0xff, 0xff, 0xff, 0x00,
   0xf0, 0xff, 0xff, 0xff, 0xff, 0xff, 0xff, 0x00,
   0xf0, 0xff, 0xff, 0xff, 0xff, 0xff, 0xff, 0x00,
   0xf0, 0xff, 0xff, 0xff, 0xff, 0xff, 0xff, 0x00,
   0xf0, 0xff, 0xff, 0xff, 0xff, 0xff, 0xff, 0x00,
   0xf0, 0xff, 0xff, 0xff, 0xff, 0xff, 0xff, 0x00,
   0xf0, 0xff, 0xff, 0xff, 0xff, 0xff, 0xff, 0x00,
   0xf0, 0xff, 0xff, 0xff, 0xff, 0xff, 0xff, 0x00,
   0xf0, 0xff, 0xff, 0xff, 0xff, 0xff, 0xff, 0x00,
   0xf0, 0xff, 0xff, 0xff, 0xff, 0xff, 0xff, 0x00,
   0xf0, 0xff, 0xff, 0xff, 0xff, 0xff, 0xff, 0x00,
   0xf0, 0xff, 0xff, 0xff, 0xff, 0xff, 0xff, 0x00,
   0xf0, 0xff, 0xff, 0xff, 0xff, 0xff, 0xff, 0x00,
   0xf0, 0xff, 0xff, 0xff, 0xff, 0xff, 0xff, 0x00,
   0xf0, 0xff, 0xff, 0xff, 0xff, 0xff, 0xff, 0x00,
   0xf0, 0xff, 0xff, 0xff, 0xff, 0xff, 0xff, 0x00,
   0xf0, 0xff, 0xff, 0xff, 0xff, 0xff, 0xff, 0x00,
   0xf0, 0xff, 0xff, 0xff, 0xff, 0xff, 0xff, 0x00,
   0xf0, 0xff, 0xff, 0xff, 0xff, 0xff, 0xff, 0x00,
   0xf0, 0xff, 0xff, 0xff, 0xff, 0xff, 0xff, 0x00,
   0xf0, 0xff, 0xff, 0xff, 0xff, 0xff, 0xff, 0x00,
   0xf0, 0xff, 0xff, 0xff, 0xff, 0xff, 0xff, 0x00,
   0xf0, 0xff, 0xff, 0xff, 0xff, 0xff, 0xff, 0x00,
   0xf0, 0xff, 0xff, 0xff, 0xff, 0xff, 0xff, 0x00,
   0xf0, 0xff, 0xff, 0xff, 0xff, 0xff, 0xff, 0x00,
   0xf0, 0xff, 0xff, 0xff, 0xff, 0xff, 0xff, 0x00,
   0xf0, 0xff, 0xff, 0xff, 0xff, 0xff, 0xff, 0x00,
   0xf0, 0xff, 0xff, 0xff, 0xff, 0xff, 0xff, 0x00,
   0xf0, 0xff, 0xff, 0xff, 0xff, 0xff, 0xff, 0x00,
   0xf0, 0xff, 0xff, 0xff, 0xff, 0xff, 0xff, 0x00,
   0xf0, 0xff, 0xff, 0xff, 0xff, 0xff, 0xff, 0x00,
   0xf0, 0xff, 0xff, 0xff, 0xff, 0xff, 0xff, 0x00,
   0xf0, 0xff, 0xff, 0xff, 0xff, 0xff, 0xff, 0x00,
   0xf0, 0xff, 0xff, 0xff, 0xff, 0xff, 0xff, 0x00,
   0xf0, 0xff, 0xff, 0xff, 0xff, 0xff, 0xff, 0x00,
   0xf0, 0xff, 0xff, 0xff, 0xff, 0xff, 0xff, 0x00,
   0xf0, 0xff, 0xff, 0xff, 0xff, 0xff, 0xff, 0x00,
   0xf0, 0xff, 0xff, 0xff, 0xff, 0xff, 0xff, 0x00,
   0xf0, 0xff, 0xff, 0xff, 0xff, 0xff, 0xff, 0x00,
   0xf0, 0xff, 0xff, 0xff, 0xff, 0xff, 0xff, 0x00,
   0xf0, 0xff, 0xff, 0xff, 0xff, 0xff, 0xff, 0x00,
   0xf0, 0xff, 0xff, 0xff, 0xff, 0xff, 0xff, 0x00,
   0xf0, 0xff, 0xff, 0xff, 0xff, 0xff, 0xff, 0x00,
   0xf0, 0xff, 0xff, 0xff, 0xff, 0xff, 0xff, 0x00,
   0xf0, 0xff, 0xff, 0xff, 0xff, 0xff, 0xff, 0x00,
   0xf0, 0xff, 0xff, 0xff, 0xff, 0xff, 0xff, 0x00,
   0xf0, 0xff, 0xff, 0xff, 0xff, 0xff, 0xff, 0x00,
   0xf0, 0xff, 0xff, 0xff, 0xff, 0xff, 0xff, 0x00,
   0xf0, 0xff, 0xff, 0xff, 0xff, 0xff, 0xff, 0x00,
   0x00, 0x00, 0x00, 0x00, 0x00, 0x00, 0x00, 0x00,
   0x00, 0x00, 0x00, 0x00, 0x00, 0x00, 0x00, 0x00,
   0x00, 0x00, 0x00, 0x00, 0x00, 0x00, 0x00, 0x00,
   0x00, 0x00, 0x00, 0x00, 0x00, 0x00, 0x00, 0x00
};
